<mxfile host="app.diagrams.net" modified="2021-06-21T07:41:52.695Z" agent="5.0 (Windows NT 10.0; Win64; x64) AppleWebKit/537.36 (KHTML, like Gecko) Chrome/91.0.4472.114 Safari/537.36" etag="kjjWUyE9XssMoZun8Ah9" version="14.7.10" type="github">
  <diagram id="24gWO0HILD9tmGagheGm" name="Page-1">
    <mxGraphModel dx="1038" dy="547" grid="1" gridSize="10" guides="1" tooltips="1" connect="1" arrows="1" fold="1" page="1" pageScale="1" pageWidth="827" pageHeight="1169" math="0" shadow="0">
      <root>
        <mxCell id="0" />
        <mxCell id="1" parent="0" />
        <mxCell id="GQx1fkRDCFHswaFwZT72-8" value="" style="edgeStyle=orthogonalEdgeStyle;rounded=0;orthogonalLoop=1;jettySize=auto;html=1;" edge="1" parent="1" target="GQx1fkRDCFHswaFwZT72-4">
          <mxGeometry relative="1" as="geometry">
            <mxPoint x="90" y="270" as="sourcePoint" />
          </mxGeometry>
        </mxCell>
        <mxCell id="GQx1fkRDCFHswaFwZT72-10" value="" style="edgeStyle=orthogonalEdgeStyle;rounded=0;orthogonalLoop=1;jettySize=auto;html=1;" edge="1" parent="1" source="GQx1fkRDCFHswaFwZT72-4" target="GQx1fkRDCFHswaFwZT72-9">
          <mxGeometry relative="1" as="geometry" />
        </mxCell>
        <mxCell id="GQx1fkRDCFHswaFwZT72-4" value="&lt;font style=&quot;font-size: 14px&quot;&gt;登录EAS&lt;/font&gt;" style="rounded=0;whiteSpace=wrap;html=1;gradientDirection=east;shadow=0;sketch=0;glass=0;" vertex="1" parent="1">
          <mxGeometry x="140" y="250" width="60" height="40" as="geometry" />
        </mxCell>
        <mxCell id="GQx1fkRDCFHswaFwZT72-12" value="" style="edgeStyle=orthogonalEdgeStyle;rounded=0;orthogonalLoop=1;jettySize=auto;html=1;" edge="1" parent="1" source="GQx1fkRDCFHswaFwZT72-9" target="GQx1fkRDCFHswaFwZT72-11">
          <mxGeometry relative="1" as="geometry" />
        </mxCell>
        <mxCell id="GQx1fkRDCFHswaFwZT72-9" value="&lt;font style=&quot;font-size: 14px&quot;&gt;切换组织&lt;/font&gt;" style="rounded=0;whiteSpace=wrap;html=1;" vertex="1" parent="1">
          <mxGeometry x="240" y="250" width="60" height="40" as="geometry" />
        </mxCell>
        <mxCell id="GQx1fkRDCFHswaFwZT72-14" value="" style="edgeStyle=orthogonalEdgeStyle;rounded=0;orthogonalLoop=1;jettySize=auto;html=1;" edge="1" parent="1" source="GQx1fkRDCFHswaFwZT72-11" target="GQx1fkRDCFHswaFwZT72-13">
          <mxGeometry relative="1" as="geometry" />
        </mxCell>
        <mxCell id="GQx1fkRDCFHswaFwZT72-11" value="&lt;font style=&quot;font-size: 14px&quot;&gt;折旧计提&lt;/font&gt;" style="rounded=0;whiteSpace=wrap;html=1;fillColor=#fff2cc;strokeColor=#d6b656;" vertex="1" parent="1">
          <mxGeometry x="344" y="250" width="60" height="40" as="geometry" />
        </mxCell>
        <mxCell id="GQx1fkRDCFHswaFwZT72-16" value="" style="edgeStyle=orthogonalEdgeStyle;rounded=0;orthogonalLoop=1;jettySize=auto;html=1;" edge="1" parent="1" source="GQx1fkRDCFHswaFwZT72-13" target="GQx1fkRDCFHswaFwZT72-15">
          <mxGeometry relative="1" as="geometry" />
        </mxCell>
        <mxCell id="GQx1fkRDCFHswaFwZT72-13" value="&lt;font style=&quot;font-size: 14px&quot;&gt;凭证过账&lt;/font&gt;" style="rounded=0;whiteSpace=wrap;html=1;fillColor=#fff2cc;strokeColor=#d6b656;" vertex="1" parent="1">
          <mxGeometry x="440" y="250" width="60" height="40" as="geometry" />
        </mxCell>
        <mxCell id="GQx1fkRDCFHswaFwZT72-19" value="" style="edgeStyle=orthogonalEdgeStyle;rounded=0;orthogonalLoop=1;jettySize=auto;html=1;" edge="1" parent="1" source="GQx1fkRDCFHswaFwZT72-15" target="GQx1fkRDCFHswaFwZT72-18">
          <mxGeometry relative="1" as="geometry" />
        </mxCell>
        <mxCell id="GQx1fkRDCFHswaFwZT72-15" value="&lt;font style=&quot;font-size: 14px&quot;&gt;期末结账&lt;/font&gt;" style="rounded=0;whiteSpace=wrap;html=1;fillColor=#fff2cc;strokeColor=#d6b656;" vertex="1" parent="1">
          <mxGeometry x="540" y="250" width="60" height="40" as="geometry" />
        </mxCell>
        <mxCell id="GQx1fkRDCFHswaFwZT72-22" value="" style="edgeStyle=orthogonalEdgeStyle;rounded=0;orthogonalLoop=1;jettySize=auto;html=1;" edge="1" parent="1" source="GQx1fkRDCFHswaFwZT72-18" target="GQx1fkRDCFHswaFwZT72-21">
          <mxGeometry relative="1" as="geometry" />
        </mxCell>
        <mxCell id="GQx1fkRDCFHswaFwZT72-18" value="&lt;font style=&quot;font-size: 14px&quot;&gt;发送通知邮件&lt;/font&gt;" style="rounded=0;whiteSpace=wrap;html=1;" vertex="1" parent="1">
          <mxGeometry x="640" y="250" width="60" height="40" as="geometry" />
        </mxCell>
        <mxCell id="GQx1fkRDCFHswaFwZT72-20" value="&lt;font style=&quot;font-size: 14px&quot;&gt;开始&lt;/font&gt;" style="rounded=1;whiteSpace=wrap;html=1;perimeterSpacing=1;gradientDirection=north;glass=0;shadow=0;sketch=0;strokeWidth=1;" vertex="1" parent="1">
          <mxGeometry x="40" y="250" width="60" height="40" as="geometry" />
        </mxCell>
        <mxCell id="GQx1fkRDCFHswaFwZT72-21" value="&lt;font style=&quot;font-size: 14px&quot;&gt;结束&lt;/font&gt;" style="rounded=1;whiteSpace=wrap;html=1;" vertex="1" parent="1">
          <mxGeometry x="740" y="250" width="60" height="40" as="geometry" />
        </mxCell>
      </root>
    </mxGraphModel>
  </diagram>
</mxfile>
